<?xml version="1.0" encoding="utf-8"?>
<!-- Generator: Adobe Illustrator 23.1.0, SVG Export Plug-In . SVG Version: 6.00 Build 0)  -->
<svg version="1.1" id="Capa_1" xmlns="http://www.w3.org/2000/svg" xmlns:xlink="http://www.w3.org/1999/xlink" x="0px" y="0px"
	 viewBox="0 0 595.3 595.3" enable-background="new 0 0 595.3 595.3" xml:space="preserve">
<g>
	<polygon points="275.7,508 275.7,382.4 299.5,386.3 323.3,382.4 323.3,508 	"/>
	<path d="M136.2,79c0,0-82.2-41.1-81.9,39.4c0,0-0.8,71.1,45.6,129.4c0,0,36.2,51.4,98.9,71c0,0-17.4-26.8-26.1-47.2
		c0,0-57-32.4-77.5-99.2c0,0-36.2-91.7,40.9-59.1V79H136.2z"/>
	<path d="M299.5,386.3c41.3,0,75.6-37.3,75.6-37.3c42.5-42.9,65.7-115.7,65.7-115.7C471.1,154,460,31.4,460,31.4H299.5H138.9
		c0,0-11,122.6,19.3,201.9c0,0,23.2,72.9,65.7,115.7C223.9,349,258.2,386.3,299.5,386.3z"/>
	<path d="M463.3,79c0,0,82.2-41.1,81.9,39.4c0,0,0.8,71.1-45.6,129.4c0,0-36.2,51.4-98.9,71c0,0,17.4-26.8,26.1-47.2
		c0,0,57-32.4,77.5-99.2c0,0,36.2-91.7-40.9-59.1V79H463.3z"/>
	<rect x="156.5" y="523.4" width="285.9" height="41.6"/>
	<rect x="250.5" y="508" width="98" height="15.4"/>
</g>
</svg>
