<?xml version="1.0" encoding="iso-8859-1"?>
<!-- Generator: Adobe Illustrator 19.0.0, SVG Export Plug-In . SVG Version: 6.00 Build 0)  -->
<svg version="1.1" id="Capa_1" xmlns="http://www.w3.org/2000/svg" xmlns:xlink="http://www.w3.org/1999/xlink" x="0px" y="0px"
	 viewBox="0 0 498.553 498.553" style="enable-background:new 0 0 498.553 498.553;" xml:space="preserve">
<g>
	<path d="M485.094,37.607c-16.609-19.232-53.615-34.967-137.244,0C270.341,7.011,179.428,20.124,113.575,76.361
		C47.43,132.599,20.622,219.724,38.105,300.73c-1.166,0.874-2.04,2.04-2.914,3.497C-12.596,381.445-2.98,420.782,13.337,440.014
		c9.324,10.781,25.351,20.689,53.033,20.689c19.523,0,44.874-4.954,77.509-18.066c2.04-0.874,4.079-1.748,6.119-2.622
		c-0.583,6.993,2.914,13.695,9.616,17.192c32.927,16.318,68.185,24.477,103.151,24.477c53.615,0,106.648-18.649,149.482-55.072
		c75.469-64.397,101.112-169.296,64.105-261.375c-1.166-2.622-2.622-4.662-4.371-6.411
		C510.154,91.222,500.246,55.673,485.094,37.607z M40.145,417.285c-9.907-11.656-4.954-39.046,12.238-72.556
		c4.954,11.073,10.781,21.854,17.483,32.344c3.497,5.245,9.033,7.867,14.569,7.867c3.205,0,6.702-0.874,9.616-2.914
		c8.159-5.245,10.49-16.026,4.954-24.185c-53.324-81.88-37.589-191.442,37.006-254.964c70.224-60.026,173.959-62.357,246.806-5.536
		c7.576,5.828,18.649,4.662,24.477-2.914s4.662-18.649-2.914-24.477c-4.662-3.788-9.616-7.285-14.569-10.49
		c33.51-10.199,59.152-10.199,68.476,0.874c9.033,10.49,8.159,39.337-21.271,88.873c-28.847,48.662-76.635,102.569-134.621,152.104
		C172.727,411.749,62.29,443.219,40.145,417.285z M389.519,400.093c-59.152,50.41-141.615,60.9-211.548,27.39
		c47.205-23.602,98.198-57.986,146.86-99.655c50.41-42.834,93.535-89.456,124.423-133.456
		C472.273,268.095,449.254,349.1,389.519,400.093z"/>
</g>
<g>
</g>
<g>
</g>
<g>
</g>
<g>
</g>
<g>
</g>
<g>
</g>
<g>
</g>
<g>
</g>
<g>
</g>
<g>
</g>
<g>
</g>
<g>
</g>
<g>
</g>
<g>
</g>
<g>
</g>
</svg>
