<svg width="89" height="31" viewBox="0 0 89 31" fill="none" xmlns="http://www.w3.org/2000/svg">
<path d="M12.1949 1.67468C12.2574 1.70593 12.3199 1.76843 12.3824 1.86218C12.4449 1.95593 12.5022 2.10697 12.5543 2.31531C12.5543 2.51322 12.4709 2.70072 12.3043 2.87781C12.1376 3.04447 11.9553 3.12781 11.7574 3.12781L11.3199 2.98718C10.5178 2.42468 9.61676 2.14343 8.61676 2.14343H6.31988C5.41363 2.14343 4.66363 2.45593 4.06988 3.08093C3.48655 3.69552 3.19488 4.42468 3.19488 5.26843L3.24176 5.89343L3.30426 6.19031L3.41363 6.47156C3.54905 6.74239 3.78863 7.08093 4.13238 7.48718L11.0855 14.4716C11.5438 14.9195 11.8876 15.4299 12.1168 16.0028L12.2418 16.3622L12.398 16.9559L12.4605 17.3153L12.4761 17.7684C12.4761 19.0288 12.049 20.107 11.1949 21.0028C10.2886 21.9716 9.14801 22.4559 7.77301 22.4559H5.49176C4.16884 22.4559 2.98134 22.0861 1.92926 21.3466L1.66363 21.0653L1.58551 20.7216C1.58551 20.5653 1.66363 20.3934 1.81988 20.2059C1.97613 20.0184 2.15321 19.9247 2.35113 19.9247L2.80426 20.0653C3.62717 20.6174 4.52301 20.8934 5.49176 20.8934H7.77301C8.61676 20.8934 9.35113 20.5809 9.97613 19.9559C10.6011 19.3309 10.9136 18.5966 10.9136 17.7528L10.8668 17.2216C10.8563 17.1382 10.8355 17.0497 10.8043 16.9559C10.773 16.8518 10.7365 16.7528 10.6949 16.6591C10.5803 16.3049 10.3459 15.9351 9.99176 15.5497L3.00738 8.56531C2.6428 8.20072 2.28863 7.69031 1.94488 7.03406C1.72613 6.47156 1.61676 5.88302 1.61676 5.26843C1.61676 4.00802 2.04384 2.92989 2.89801 2.03406C3.80426 1.06531 4.94488 0.580933 6.31988 0.580933H8.61676C9.14801 0.580933 9.74696 0.674683 10.4136 0.862183C11.0803 1.04968 11.674 1.32052 12.1949 1.67468ZM20.3355 2.14343H16.4293C16.1897 2.14343 15.997 2.07052 15.8511 1.92468C15.7157 1.75802 15.648 1.57052 15.648 1.36218C15.648 1.2476 15.7105 1.09135 15.8355 0.893433C15.9709 0.685099 16.1688 0.580933 16.4293 0.580933H25.8199C26.0074 0.580933 26.1845 0.664266 26.3511 0.830933C26.5178 0.997599 26.6011 1.17468 26.6011 1.36218C26.6011 1.54968 26.5334 1.72677 26.398 1.89343C26.2626 2.0601 26.0699 2.14343 25.8199 2.14343H21.898V21.6747C21.898 21.9247 21.8251 22.1226 21.6793 22.2684C21.5334 22.3934 21.3459 22.4559 21.1168 22.4559C21.023 22.4559 20.8407 22.3934 20.5699 22.2684C20.4136 22.1434 20.3355 21.9455 20.3355 21.6747V2.14343ZM50.023 11.5028H54.7105C55.5543 11.5028 56.2886 11.2059 56.9136 10.6122C57.5386 10.0184 57.8511 9.27885 57.8511 8.39343V5.26843C57.8511 4.41427 57.5438 3.67989 56.9293 3.06531C56.3147 2.45072 55.5751 2.14343 54.7105 2.14343H50.023V11.5028ZM54.5074 13.0653L59.3043 21.2841C59.3772 21.3986 59.4136 21.5341 59.4136 21.6903C59.4136 21.8778 59.3303 22.0601 59.1636 22.2372C58.997 22.383 58.8095 22.4559 58.6011 22.4559C58.4657 22.4559 58.3459 22.4299 58.2418 22.3778C58.1376 22.3049 58.0438 22.2007 57.9605 22.0653L52.7105 13.0653H50.023V21.6747C50.023 21.9247 49.9501 22.1226 49.8043 22.2684C49.6584 22.3934 49.4709 22.4559 49.2418 22.4559C49.148 22.4559 48.9657 22.3934 48.6949 22.2684C48.5386 22.1434 48.4605 21.9455 48.4605 21.6747V1.36218C48.4605 0.841349 48.7209 0.580933 49.2418 0.580933H54.7105C55.9918 0.580933 57.0959 1.03927 58.023 1.95593C58.9501 2.86218 59.4136 3.96635 59.4136 5.26843V8.39343C59.4136 9.67468 58.9553 10.7736 58.0386 11.6903C57.122 12.607 56.0126 13.0653 54.7105 13.0653H54.5074ZM67.2105 2.14343H63.3043C63.0647 2.14343 62.872 2.07052 62.7261 1.92468C62.5907 1.75802 62.523 1.57052 62.523 1.36218C62.523 1.2476 62.5855 1.09135 62.7105 0.893433C62.8459 0.685099 63.0438 0.580933 63.3043 0.580933H72.6949C72.8824 0.580933 73.0595 0.664266 73.2261 0.830933C73.3928 0.997599 73.4761 1.17468 73.4761 1.36218C73.4761 1.54968 73.4084 1.72677 73.273 1.89343C73.1376 2.0601 72.9449 2.14343 72.6949 2.14343H68.773V21.6747C68.773 21.9247 68.7001 22.1226 68.5543 22.2684C68.4084 22.3934 68.2209 22.4559 67.9918 22.4559C67.898 22.4559 67.7157 22.3934 67.4449 22.2684C67.2886 22.1434 67.2105 21.9455 67.2105 21.6747V2.14343Z" fill="black"/>
<path d="M71.8858 20.8446C72.0791 20.8446 72.2617 20.9305 72.4336 21.1024C72.6055 21.2743 72.6914 21.4569 72.6914 21.6503C72.6914 21.8436 72.6198 22.0262 72.4766 22.1981C72.3405 22.37 72.1436 22.4559 71.8858 22.4559C71.6351 22.4559 71.4382 22.3807 71.295 22.2303C71.1517 22.0585 71.0801 21.8651 71.0801 21.6503C71.0801 21.5285 71.1481 21.3638 71.2842 21.1561C71.4203 20.9484 71.6208 20.8446 71.8858 20.8446ZM75.3051 18.5546H76.5258C76.7927 18.5546 77.0222 18.4585 77.2143 18.2665C77.4064 18.0744 77.5024 17.8433 77.5024 17.5731V17.0848C77.5024 16.8147 77.408 16.5852 77.2192 16.3964C77.0336 16.2043 76.8025 16.1083 76.5258 16.1083H75.3051V18.5546ZM75.3051 21.9677H76.77C77.0336 21.9677 77.2631 21.8749 77.4584 21.6893C77.6537 21.5038 77.7514 21.271 77.7514 20.9911V20.0145C77.7514 19.7606 77.6521 19.536 77.4536 19.3407C77.255 19.1421 77.0271 19.0428 76.77 19.0428H75.3051V21.9677ZM75.061 22.4559C74.8982 22.4559 74.8168 22.3746 74.8168 22.2118V15.8641C74.8168 15.7014 74.8982 15.62 75.061 15.62H76.5258C76.9262 15.62 77.2713 15.7632 77.561 16.0497C77.7042 16.1864 77.8116 16.3427 77.8832 16.5184L77.9565 16.7772L77.9809 16.9335L77.9907 17.0848V17.5731C77.9907 17.8108 77.9467 18.0207 77.8588 18.203C77.7709 18.3853 77.6326 18.5562 77.4438 18.7157C77.6749 18.8329 77.8653 19.0135 78.0151 19.2577C78.1648 19.5018 78.2397 19.7541 78.2397 20.0145V20.9911C78.2397 21.3817 78.0867 21.7235 77.7807 22.0165C77.478 22.3094 77.1411 22.4559 76.77 22.4559H75.061ZM80.1586 20.4979L79.6801 22.2704C79.6703 22.3257 79.6427 22.3697 79.5971 22.4022C79.5548 22.4348 79.506 22.451 79.4506 22.451C79.3855 22.451 79.3269 22.4299 79.2748 22.3876C79.226 22.342 79.2016 22.2834 79.2016 22.2118L79.2114 22.1434L80.9203 15.8446C80.9594 15.6981 81.0375 15.6249 81.1547 15.6249C81.2719 15.6249 81.35 15.6981 81.3891 15.8446L83.0981 22.1434L83.1078 22.2167C83.1078 22.2753 83.0818 22.3322 83.0297 22.3876C82.9776 22.4299 82.9207 22.451 82.8588 22.451C82.8067 22.451 82.7595 22.438 82.7172 22.412C82.6782 22.3827 82.6489 22.3355 82.6293 22.2704L82.1508 20.4979H80.1586ZM82.019 20.0096L81.1547 16.7919L80.2905 20.0096H82.019ZM88.4838 22.2069C88.4838 22.285 88.461 22.3469 88.4155 22.3925C88.3699 22.4315 88.3113 22.451 88.2397 22.451C88.2104 22.451 88.1534 22.4315 88.0688 22.3925C88.02 22.3534 87.9955 22.2915 87.9955 22.2069V16.7333L86.4965 19.1649C86.4347 19.2658 86.3631 19.3163 86.2817 19.3163C86.2036 19.3163 86.1352 19.2658 86.0766 19.1649L84.5825 16.7382V22.2069C84.5825 22.285 84.5597 22.3469 84.5141 22.3925C84.4685 22.4315 84.4099 22.451 84.3383 22.451C84.309 22.451 84.2521 22.4315 84.1674 22.3925C84.1186 22.3534 84.0942 22.2915 84.0942 22.2069V15.869C84.0942 15.7811 84.1137 15.7128 84.1528 15.6639C84.1951 15.6119 84.2488 15.5858 84.3139 15.5858C84.3595 15.5858 84.4002 15.5972 84.436 15.62C84.449 15.6233 84.4864 15.6639 84.5483 15.7421L86.2866 18.5741L88.0297 15.7421C88.0948 15.6379 88.173 15.5858 88.2641 15.5858C88.3227 15.5858 88.3731 15.6119 88.4155 15.6639C88.461 15.716 88.4838 15.7844 88.4838 15.869V22.2069Z" fill="#004707"/>
<path d="M35.5 0C35.5 0 31.5652 3.4195 31.5652 11.8195C31.5652 17.2069 33.0199 20.5752 34.9141 21.1509V15.7286C34.9141 15.3663 35.1762 15.0723 35.5 15.0723C35.8238 15.0723 36.0859 15.3663 36.0859 15.7286V21.1509C37.9801 20.5756 39.4348 17.2069 39.4348 11.8195C39.4348 3.32237 35.5 0 35.5 0ZM35.4539 6.48287C34.7785 6.48287 34.1187 6.41506 33.5344 6.29125C34.1066 4.22581 34.9137 2.83456 35.5074 2.02081C36.0996 2.8245 36.9027 4.2035 37.4711 6.27112C36.8641 6.4085 36.1687 6.48287 35.4539 6.48287Z" fill="black"/>
<path d="M30.5094 15.533C29.3348 15.533 28.3828 16.4434 28.3828 17.5665V22.9119L32.2352 19.7199C31.6637 18.6279 31.2367 17.2099 30.9848 15.533H30.5094Z" fill="black"/>
<path d="M40.4906 15.533H40.0156C39.7637 17.2099 39.3367 18.6279 38.7652 19.7199L42.6176 22.9119V17.5665C42.6172 16.4434 41.6652 15.533 40.4906 15.533Z" fill="black"/>
<path d="M4.1251 29.3339C4.1251 29.3729 4.11371 29.4038 4.09092 29.4266C4.06813 29.4462 4.03884 29.4559 4.00303 29.4559C3.98838 29.4559 3.9599 29.4462 3.91758 29.4266C3.89317 29.4071 3.88096 29.3762 3.88096 29.3339V26.2821H2.65781V29.3339C2.65781 29.3729 2.64642 29.4038 2.62363 29.4266C2.60085 29.4462 2.57155 29.4559 2.53574 29.4559C2.5211 29.4559 2.49261 29.4462 2.45029 29.4266C2.42588 29.4071 2.41367 29.3762 2.41367 29.3339V26.16C2.41367 26.0787 2.45436 26.038 2.53574 26.038H4.00303C4.08441 26.038 4.1251 26.0787 4.1251 26.16V29.3339ZM6.90508 27.7445H7.6375C7.76934 27.7445 7.88408 27.6981 7.98174 27.6053C8.0794 27.5126 8.12822 27.397 8.12822 27.2587V26.7704C8.12822 26.6369 8.08021 26.5222 7.98418 26.4261C7.88815 26.3301 7.77259 26.2821 7.6375 26.2821H6.90508V27.7445ZM6.90508 27.9886V29.3339C6.90508 29.3729 6.89369 29.4038 6.8709 29.4266C6.84811 29.4462 6.81882 29.4559 6.78301 29.4559C6.76836 29.4559 6.73988 29.4462 6.69756 29.4266C6.67315 29.4071 6.66094 29.3762 6.66094 29.3339V26.16C6.66094 26.0787 6.70163 26.038 6.78301 26.038H7.6375C7.8377 26.038 8.01022 26.1096 8.15508 26.2528C8.29994 26.3944 8.37236 26.5669 8.37236 26.7704V27.2587C8.37236 27.4589 8.30075 27.6306 8.15752 27.7738C8.01429 27.917 7.84095 27.9886 7.6375 27.9886H6.90508ZM12.6196 28.7235C12.6196 28.9237 12.548 29.0962 12.4048 29.2411C12.2616 29.3843 12.0882 29.4559 11.8848 29.4559H11.6406C11.4535 29.4559 11.2842 29.3851 11.1328 29.2435C10.9831 29.1019 10.9082 28.9286 10.9082 28.7235V26.7704C10.9082 26.5751 10.979 26.4042 11.1206 26.2577C11.2622 26.1112 11.4355 26.038 11.6406 26.038H11.8848C12.085 26.038 12.2575 26.1096 12.4023 26.2528C12.5472 26.3944 12.6196 26.5669 12.6196 26.7704V28.7235ZM12.3755 28.7235V26.7704C12.3755 26.6369 12.3275 26.5222 12.2314 26.4261C12.1354 26.3301 12.0199 26.2821 11.8848 26.2821H11.6406C11.5055 26.2821 11.39 26.3301 11.2939 26.4261C11.1995 26.5205 11.1523 26.6353 11.1523 26.7704V28.7235C11.1523 28.8553 11.2012 28.9701 11.2988 29.0677C11.3981 29.1638 11.512 29.2118 11.6406 29.2118H11.8848C12.0166 29.2118 12.1313 29.1654 12.229 29.0726C12.3267 28.9799 12.3755 28.8635 12.3755 28.7235ZM16.9865 29.2118C17.0679 29.2118 17.1086 29.2525 17.1086 29.3339V29.5756C17.1086 29.6049 17.0956 29.6325 17.0695 29.6586C17.0435 29.6846 17.0158 29.6976 16.9865 29.6976C16.9572 29.6976 16.9296 29.6871 16.9035 29.6659C16.8775 29.6447 16.8645 29.6146 16.8645 29.5756V29.4559H15.3996V29.5756C15.3996 29.6049 15.3866 29.6325 15.3605 29.6586C15.3345 29.6846 15.3068 29.6976 15.2775 29.6976C15.2482 29.6976 15.2206 29.6871 15.1945 29.6659C15.1685 29.6447 15.1555 29.6146 15.1555 29.5756V29.3339C15.1555 29.2525 15.1962 29.2118 15.2775 29.2118H15.4069L15.6438 26.1478C15.6438 26.1136 15.6543 26.0868 15.6755 26.0673L15.7072 26.0477L15.7658 26.0355H16.7448C16.8262 26.0355 16.8669 26.0762 16.8669 26.1576V29.2094L16.9865 29.2118ZM15.6535 29.2118H16.6228V26.2797H15.8781L15.6535 29.2118ZM19.891 27.5052H20.5014C20.6348 27.5052 20.7496 27.4572 20.8456 27.3612C20.9416 27.2652 20.9897 27.1496 20.9897 27.0145V26.7704C20.9897 26.6353 20.9425 26.5205 20.848 26.4261C20.7553 26.3301 20.6397 26.2821 20.5014 26.2821H19.891V27.5052ZM19.891 29.2118H20.6234C20.7553 29.2118 20.87 29.1654 20.9677 29.0726C21.0653 28.9799 21.1142 28.8635 21.1142 28.7235V28.2352C21.1142 28.1083 21.0645 27.996 20.9652 27.8983C20.866 27.799 20.752 27.7494 20.6234 27.7494H19.891V29.2118ZM19.7689 29.4559C19.6876 29.4559 19.6469 29.4152 19.6469 29.3339V26.16C19.6469 26.0787 19.6876 26.038 19.7689 26.038H20.5014C20.7016 26.038 20.8741 26.1096 21.0189 26.2528C21.0906 26.3212 21.1443 26.3993 21.1801 26.4872L21.2167 26.6166L21.2289 26.6947L21.2338 26.7704V27.0145C21.2338 27.1333 21.2118 27.2383 21.1679 27.3295C21.1239 27.4206 21.0548 27.5061 20.9604 27.5858C21.0759 27.6444 21.1711 27.7347 21.246 27.8568C21.3209 27.9789 21.3583 28.105 21.3583 28.2352V28.7235C21.3583 28.9188 21.2818 29.0897 21.1288 29.2362C20.9774 29.3827 20.809 29.4559 20.6234 29.4559H19.7689ZM25.6056 29.3094C25.6056 29.3485 25.5942 29.3794 25.5714 29.4022C25.5486 29.4218 25.5193 29.4315 25.4835 29.4315C25.4688 29.4315 25.4404 29.4218 25.398 29.4022C25.3736 29.3827 25.3614 29.3518 25.3614 29.3094V26.6898L24.1261 29.3607C24.0968 29.4193 24.0569 29.4486 24.0064 29.4486C23.9771 29.4486 23.9503 29.4364 23.9259 29.412C23.9047 29.3859 23.8941 29.3518 23.8941 29.3094V26.1356C23.8941 26.1096 23.9063 26.0827 23.9308 26.0551C23.9552 26.0274 23.9837 26.0135 24.0162 26.0135C24.0455 26.0135 24.0732 26.0241 24.0992 26.0453C24.1253 26.0664 24.1383 26.0966 24.1383 26.1356V28.7552L25.3736 26.0844C25.4029 26.0258 25.4428 25.9965 25.4933 25.9965C25.5177 25.9965 25.5421 26.0095 25.5665 26.0355C25.5925 26.0616 25.6056 26.0949 25.6056 26.1356V29.3094ZM29.3572 27.4882L30.1067 26.1014C30.1295 26.0575 30.1645 26.0355 30.2117 26.0355C30.2475 26.0355 30.2776 26.0469 30.3021 26.0697C30.3265 26.0925 30.3387 26.121 30.3387 26.1552C30.3387 26.1747 30.333 26.1958 30.3216 26.2186L29.5574 27.6322L30.324 29.2826C30.3338 29.3054 30.3387 29.3265 30.3387 29.3461C30.3387 29.3754 30.3257 29.403 30.2996 29.4291C30.2736 29.4502 30.2459 29.4608 30.2166 29.4608C30.1922 29.4608 30.1702 29.4559 30.1507 29.4462C30.136 29.4364 30.1206 29.4161 30.1043 29.3851L29.3572 27.7787V29.3339C29.3572 29.3729 29.3458 29.4038 29.323 29.4266C29.3003 29.4462 29.271 29.4559 29.2352 29.4559C29.2205 29.4559 29.192 29.4462 29.1497 29.4266C29.1253 29.4071 29.1131 29.3762 29.1131 29.3339V27.7885L28.3709 29.3851C28.3611 29.4047 28.3457 29.4226 28.3245 29.4388L28.2635 29.4559C28.2309 29.4559 28.2016 29.4454 28.1756 29.4242C28.1495 29.4014 28.1365 29.3729 28.1365 29.3387L28.1512 29.2826L28.9178 27.6322L28.1536 26.2186L28.1365 26.1552C28.1365 26.1372 28.1487 26.1128 28.1731 26.0819C28.1976 26.051 28.2285 26.0355 28.2659 26.0355C28.3099 26.0355 28.344 26.0575 28.3685 26.1014L29.1131 27.4784V26.16C29.1131 26.1259 29.1253 26.0966 29.1497 26.0721C29.1741 26.0477 29.2034 26.0355 29.2376 26.0355C29.2718 26.0355 29.3003 26.0461 29.323 26.0673C29.3458 26.0868 29.3572 26.1177 29.3572 26.16V27.4882ZM33.1235 27.7494V29.2118H34.2222C34.2515 29.2118 34.2791 29.2248 34.3052 29.2509C34.3312 29.2769 34.3442 29.3046 34.3442 29.3339C34.3442 29.3632 34.3337 29.3908 34.3125 29.4169C34.2913 29.4429 34.2612 29.4559 34.2222 29.4559H33.0015C32.9201 29.4559 32.8794 29.4152 32.8794 29.3339V26.16C32.8794 26.0787 32.9201 26.038 33.0015 26.038H34.2222C34.2515 26.038 34.2791 26.051 34.3052 26.077C34.3312 26.1031 34.3442 26.1307 34.3442 26.16C34.3442 26.1893 34.3337 26.217 34.3125 26.243C34.2913 26.2691 34.2612 26.2821 34.2222 26.2821H33.1235V27.5052H33.7339C33.7632 27.5052 33.7909 27.5183 33.8169 27.5443C33.8429 27.5704 33.856 27.598 33.856 27.6273C33.856 27.6566 33.8454 27.6843 33.8242 27.7103C33.8031 27.7364 33.773 27.7494 33.7339 27.7494H33.1235ZM38.3474 27.5052V26.16C38.3474 26.134 38.3596 26.1071 38.384 26.0795C38.4084 26.0518 38.4369 26.038 38.4694 26.038C38.4987 26.038 38.5264 26.0485 38.5524 26.0697C38.5785 26.0909 38.5915 26.121 38.5915 26.16V29.3339C38.5915 29.3729 38.5801 29.4038 38.5573 29.4266C38.5345 29.4462 38.5052 29.4559 38.4694 29.4559C38.4548 29.4559 38.4263 29.4462 38.384 29.4266C38.3596 29.4071 38.3474 29.3762 38.3474 29.3339V27.7494H37.1242V29.3339C37.1242 29.3729 37.1128 29.4038 37.09 29.4266C37.0673 29.4462 37.038 29.4559 37.0022 29.4559C36.9875 29.4559 36.959 29.4462 36.9167 29.4266C36.8923 29.4071 36.8801 29.3762 36.8801 29.3339V26.16C36.8801 26.134 36.8923 26.1071 36.9167 26.0795C36.9411 26.0518 36.9696 26.038 37.0022 26.038C37.0314 26.038 37.0591 26.0485 37.0852 26.0697C37.1112 26.0909 37.1242 26.121 37.1242 26.16V27.5052H38.3474ZM42.8388 29.3094C42.8388 29.3485 42.8274 29.3794 42.8046 29.4022C42.7818 29.4218 42.7525 29.4315 42.7167 29.4315C42.7021 29.4315 42.6736 29.4218 42.6313 29.4022C42.6068 29.3827 42.5946 29.3518 42.5946 29.3094V26.6898L41.3593 29.3607C41.33 29.4193 41.2901 29.4486 41.2397 29.4486C41.2104 29.4486 41.1835 29.4364 41.1591 29.412C41.1379 29.3859 41.1273 29.3518 41.1273 29.3094V26.1356C41.1273 26.1096 41.1396 26.0827 41.164 26.0551C41.1884 26.0274 41.2169 26.0135 41.2494 26.0135C41.2787 26.0135 41.3064 26.0241 41.3324 26.0453C41.3585 26.0664 41.3715 26.0966 41.3715 26.1356V28.7552L42.6068 26.0844C42.6361 26.0258 42.676 25.9965 42.7265 25.9965C42.7509 25.9965 42.7753 26.0095 42.7997 26.0355C42.8258 26.0616 42.8388 26.0949 42.8388 26.1356V29.3094ZM45.6212 27.7494V29.2118H46.7198C46.7491 29.2118 46.7768 29.2248 46.8028 29.2509C46.8289 29.2769 46.8419 29.3046 46.8419 29.3339C46.8419 29.3632 46.8313 29.3908 46.8102 29.4169C46.789 29.4429 46.7589 29.4559 46.7198 29.4559H45.4991C45.4177 29.4559 45.3771 29.4152 45.3771 29.3339V26.16C45.3771 26.0787 45.4177 26.038 45.4991 26.038H46.7198C46.7491 26.038 46.7768 26.051 46.8028 26.077C46.8289 26.1031 46.8419 26.1307 46.8419 26.16C46.8419 26.1893 46.8313 26.217 46.8102 26.243C46.789 26.2691 46.7589 26.2821 46.7198 26.2821H45.6212V27.5052H46.2315C46.2608 27.5052 46.2885 27.5183 46.3146 27.5443C46.3406 27.5704 46.3536 27.598 46.3536 27.6273C46.3536 27.6566 46.343 27.6843 46.3219 27.7103C46.3007 27.7364 46.2706 27.7494 46.2315 27.7494H45.6212ZM54.9354 29.4559H54.3274C54.137 29.4559 53.9669 29.3851 53.8172 29.2435C53.6674 29.1003 53.5926 28.927 53.5926 28.7235V26.7704C53.5926 26.5751 53.6634 26.4042 53.805 26.2577C53.9466 26.1112 54.1207 26.038 54.3274 26.038H54.9354C54.9646 26.038 54.9923 26.051 55.0184 26.077C55.0444 26.1031 55.0574 26.1307 55.0574 26.16C55.0574 26.1893 55.0468 26.217 55.0257 26.243C55.0045 26.2691 54.9744 26.2821 54.9354 26.2821H54.3274C54.1924 26.2821 54.0768 26.3293 53.9808 26.4237C53.8847 26.5165 53.8367 26.632 53.8367 26.7704V28.7235C53.8367 28.857 53.8847 28.9717 53.9808 29.0677C54.0768 29.1638 54.1924 29.2118 54.3274 29.2118H54.9354C54.9646 29.2118 54.9923 29.2248 55.0184 29.2509C55.0444 29.2769 55.0574 29.3046 55.0574 29.3339C55.0574 29.3632 55.0468 29.3908 55.0257 29.4169C55.0045 29.4429 54.9744 29.4559 54.9354 29.4559ZM58.3281 26.2821H57.7178C57.6803 26.2821 57.6502 26.2707 57.6274 26.2479C57.6063 26.2219 57.5957 26.1926 57.5957 26.16C57.5957 26.1421 57.6055 26.1177 57.625 26.0868C57.6462 26.0542 57.6771 26.038 57.7178 26.038H59.1851C59.2144 26.038 59.242 26.051 59.2681 26.077C59.2941 26.1031 59.3071 26.1307 59.3071 26.16C59.3071 26.1893 59.2965 26.217 59.2754 26.243C59.2542 26.2691 59.2241 26.2821 59.1851 26.2821H58.5723V29.3339C58.5723 29.3729 58.5609 29.4038 58.5381 29.4266C58.5153 29.4462 58.486 29.4559 58.4502 29.4559C58.4355 29.4559 58.4071 29.4462 58.3647 29.4266C58.3403 29.4071 58.3281 29.3762 58.3281 29.3339V26.2821ZM61.8479 28.4769L61.6086 29.3632C61.6037 29.3908 61.5899 29.4128 61.5671 29.4291C61.5459 29.4454 61.5215 29.4535 61.4938 29.4535C61.4613 29.4535 61.432 29.4429 61.406 29.4218C61.3815 29.399 61.3693 29.3697 61.3693 29.3339L61.3742 29.2997L62.2287 26.1503C62.2482 26.077 62.2873 26.0404 62.3459 26.0404C62.4045 26.0404 62.4436 26.077 62.4631 26.1503L63.3176 29.2997L63.3225 29.3363C63.3225 29.3656 63.3094 29.3941 63.2834 29.4218C63.2574 29.4429 63.2289 29.4535 63.1979 29.4535C63.1719 29.4535 63.1483 29.447 63.1271 29.434C63.1076 29.4193 63.093 29.3957 63.0832 29.3632L62.8439 28.4769H61.8479ZM62.778 28.2328L62.3459 26.6239L61.9138 28.2328H62.778ZM66.1098 27.7445H66.8422C66.974 27.7445 67.0888 27.6981 67.1864 27.6053C67.2841 27.5126 67.3329 27.397 67.3329 27.2587V26.7704C67.3329 26.6369 67.2849 26.5222 67.1889 26.4261C67.0928 26.3301 66.9773 26.2821 66.8422 26.2821H66.1098V27.7445ZM66.1098 27.9886V29.3339C66.1098 29.3729 66.0984 29.4038 66.0756 29.4266C66.0528 29.4462 66.0235 29.4559 65.9877 29.4559C65.973 29.4559 65.9446 29.4462 65.9022 29.4266C65.8778 29.4071 65.8656 29.3762 65.8656 29.3339V26.16C65.8656 26.0787 65.9063 26.038 65.9877 26.038H66.8422C67.0424 26.038 67.2149 26.1096 67.3598 26.2528C67.5046 26.3944 67.5771 26.5669 67.5771 26.7704V27.2587C67.5771 27.4589 67.5054 27.6306 67.3622 27.7738C67.219 27.917 67.0456 27.9886 66.8422 27.9886H66.1098ZM70.8453 26.2821H70.235C70.1975 26.2821 70.1674 26.2707 70.1446 26.2479C70.1235 26.2219 70.1129 26.1926 70.1129 26.16C70.1129 26.1421 70.1227 26.1177 70.1422 26.0868C70.1633 26.0542 70.1943 26.038 70.235 26.038H71.7022C71.7315 26.038 71.7592 26.051 71.7853 26.077C71.8113 26.1031 71.8243 26.1307 71.8243 26.16C71.8243 26.1893 71.8137 26.217 71.7926 26.243C71.7714 26.2691 71.7413 26.2821 71.7022 26.2821H71.0895V29.3339C71.0895 29.3729 71.0781 29.4038 71.0553 29.4266C71.0325 29.4462 71.0032 29.4559 70.9674 29.4559C70.9527 29.4559 70.9243 29.4462 70.8819 29.4266C70.8575 29.4071 70.8453 29.3762 70.8453 29.3339V26.2821ZM74.365 28.4769L74.1258 29.3632C74.1209 29.3908 74.1071 29.4128 74.0843 29.4291C74.0631 29.4454 74.0387 29.4535 74.011 29.4535C73.9785 29.4535 73.9492 29.4429 73.9231 29.4218C73.8987 29.399 73.8865 29.3697 73.8865 29.3339L73.8914 29.2997L74.7459 26.1503C74.7654 26.077 74.8045 26.0404 74.8631 26.0404C74.9217 26.0404 74.9607 26.077 74.9803 26.1503L75.8348 29.2997L75.8397 29.3363C75.8397 29.3656 75.8266 29.3941 75.8006 29.4218C75.7745 29.4429 75.7461 29.4535 75.7151 29.4535C75.6891 29.4535 75.6655 29.447 75.6443 29.434C75.6248 29.4193 75.6102 29.3957 75.6004 29.3632L75.3611 28.4769H74.365ZM75.2952 28.2328L74.8631 26.6239L74.431 28.2328H75.2952ZM80.0942 29.3339C80.0942 29.3729 80.0828 29.4038 80.0601 29.4266C80.0373 29.4462 80.008 29.4559 79.9722 29.4559C79.9575 29.4559 79.929 29.4462 79.8867 29.4266C79.8623 29.4071 79.8501 29.3762 79.8501 29.3339V26.2821H78.627V29.3339C78.627 29.3729 78.6156 29.4038 78.5928 29.4266C78.57 29.4462 78.5407 29.4559 78.5049 29.4559C78.4902 29.4559 78.4618 29.4462 78.4194 29.4266C78.395 29.4071 78.3828 29.3762 78.3828 29.3339V26.16C78.3828 26.0787 78.4235 26.038 78.5049 26.038H79.9722C80.0535 26.038 80.0942 26.0787 80.0942 26.16V29.3339ZM84.3415 28.7235C84.3415 28.9237 84.2699 29.0962 84.1267 29.2411C83.9834 29.3843 83.8101 29.4559 83.6066 29.4559H83.3625C83.1753 29.4559 83.0061 29.3851 82.8547 29.2435C82.705 29.1019 82.6301 28.9286 82.6301 28.7235V26.7704C82.6301 26.5751 82.7009 26.4042 82.8425 26.2577C82.9841 26.1112 83.1574 26.038 83.3625 26.038H83.6066C83.8068 26.038 83.9794 26.1096 84.1242 26.2528C84.2691 26.3944 84.3415 26.5669 84.3415 26.7704V28.7235ZM84.0974 28.7235V26.7704C84.0974 26.6369 84.0494 26.5222 83.9533 26.4261C83.8573 26.3301 83.7417 26.2821 83.6066 26.2821H83.3625C83.2274 26.2821 83.1119 26.3301 83.0158 26.4261C82.9214 26.5205 82.8742 26.6353 82.8742 26.7704V28.7235C82.8742 28.8553 82.923 28.9701 83.0207 29.0677C83.12 29.1638 83.2339 29.2118 83.3625 29.2118H83.6066C83.7385 29.2118 83.8532 29.1654 83.9509 29.0726C84.0485 28.9799 84.0974 28.8635 84.0974 28.7235ZM87.1215 27.5052H87.7318C87.8653 27.5052 87.98 27.4572 88.0761 27.3612C88.1721 27.2652 88.2201 27.1496 88.2201 27.0145V26.7704C88.2201 26.6353 88.1729 26.5205 88.0785 26.4261C87.9857 26.3301 87.8702 26.2821 87.7318 26.2821H87.1215V27.5052ZM87.1215 29.2118H87.8539C87.9857 29.2118 88.1005 29.1654 88.1981 29.0726C88.2958 28.9799 88.3446 28.8635 88.3446 28.7235V28.2352C88.3446 28.1083 88.295 27.996 88.1957 27.8983C88.0964 27.799 87.9825 27.7494 87.8539 27.7494H87.1215V29.2118ZM86.9994 29.4559C86.918 29.4559 86.8773 29.4152 86.8773 29.3339V26.16C86.8773 26.0787 86.918 26.038 86.9994 26.038H87.7318C87.932 26.038 88.1046 26.1096 88.2494 26.2528C88.321 26.3212 88.3747 26.3993 88.4105 26.4872L88.4472 26.6166L88.4594 26.6947L88.4643 26.7704V27.0145C88.4643 27.1333 88.4423 27.2383 88.3983 27.3295C88.3544 27.4206 88.2852 27.5061 88.1908 27.5858C88.3064 27.6444 88.4016 27.7347 88.4765 27.8568C88.5513 27.9789 88.5888 28.105 88.5888 28.2352V28.7235C88.5888 28.9188 88.5123 29.0897 88.3593 29.2362C88.2079 29.3827 88.0395 29.4559 87.8539 29.4559H86.9994Z" fill="black"/>
</svg>
